<?xml version="1.0" encoding="UTF-8" standalone="no"?>
<!-- Created with Inkscape (http://www.inkscape.org/) -->

<svg
   version="1.1"
   id="svg2"
   width="194.7095"
   height="247.79253"
   viewBox="0 0 194.70951 247.79253"
   xmlns="http://www.w3.org/2000/svg"
   xmlns:svg="http://www.w3.org/2000/svg">
  <defs
     id="defs6" />
  <path
     d="m 97.393873,65.791729 c -32.090666,0 -58.105332,26.014666 -58.105332,58.105331 0,32.08933 26.014666,58.104 58.105332,58.104 32.090667,0 58.105327,-26.01467 58.105327,-58.104 0,-32.090665 -26.01466,-58.105331 -58.105327,-58.105331 m 78.483997,66.496001 c -0.43333,4.11866 1.612,8.104 5.19467,10.17466 l 8.38133,4.844 c 5.02533,2.90267 6.74667,9.32934 3.848,14.356 l -15.32133,26.56 c -2.90267,5.03467 -9.33867,6.75867 -14.36934,3.85067 l -8.35333,-4.82667 c -3.58667,-2.07333 -8.06666,-1.86533 -11.412,0.576 -4.48666,3.276 -9.33466,6.09067 -14.46933,8.37334 -3.77733,1.67866 -6.19333,5.448 -6.19333,9.584 v 9.66933 c 0,5.808 -4.708,10.516 -10.51467,10.516 h -30.628 c -5.806666,0 -10.513333,-4.708 -10.513333,-10.51467 v -9.67066 c 0,-4.136 -2.417333,-7.90534 -6.193333,-9.584 -5.134667,-2.28267 -9.982667,-5.09734 -14.470667,-8.37334 -3.345333,-2.44133 -7.825333,-2.64933 -11.411999,-0.576 l -8.369333,4.83734 c -5.022667,2.90266 -11.445333,1.18 -14.345333,-3.848 L 1.4098754,161.66506 c -2.8999999,-5.02667 -1.17999997,-11.456 3.8439999,-14.35733 l 8.3826667,-4.84534 c 3.584,-2.07066 5.629333,-6.056 5.194666,-10.17466 -0.289333,-2.74534 -0.438666,-5.53067 -0.438666,-8.352 0,-2.82134 0.149333,-5.608 0.438666,-8.352 0.434667,-4.11867 -1.610666,-8.104 -5.194666,-10.17467 l -8.38,-4.84267 C 0.22987543,97.662395 -1.4914579,91.235728 1.4085421,86.207728 L 16.736542,59.635729 c 2.9,-5.026666 9.322666,-6.749333 14.345333,-3.846666 l 8.381333,4.842666 c 3.588,2.073333 8.064,1.852 11.410666,-0.590667 4.485333,-3.273333 9.328,-6.083999 14.46,-8.363999 3.776,-1.68 6.193333,-5.448 6.193333,-9.585333 v -9.669333 c 0,-5.808 4.706667,-10.516 10.514666,-10.516 h 30.626667 c 5.80667,0 10.51467,4.708 10.51467,10.514666 v 9.670667 c 0,4.137333 2.416,7.905333 6.19333,9.585333 5.13067,2.28 9.97467,5.090666 14.46,8.363999 3.34667,2.442667 7.82266,2.664 11.40933,0.590667 l 8.38267,-4.842666 c 5.02266,-2.902667 11.44533,-1.18 14.34533,3.846666 l 15.32667,26.571999 c 2.9,5.028 1.17866,11.454667 -3.84667,14.358662 l -8.38133,4.84267 c -3.58267,2.07067 -5.628,6.056 -5.19467,10.17467 0.29067,2.744 0.44,5.53066 0.44,8.352 0,2.82133 -0.14933,5.60666 -0.44,8.352"
     style="fill:#d5d4d4;fill-opacity:1;fill-rule:nonzero;stroke:none;stroke-width:1.33333"
     id="path100" />
  <path
     d="M 155.16797,0 132.5,11.322266 83.111328,117.23633 111.67578,130.55859 161.06445,24.642578 Z"
     style="fill:#3b3735;stroke-width:1.33333"
     id="path3" />
  <path
     d="M 83.111328,117.23633 33.722656,223.15039 39.619141,247.79297 62.287109,236.4707 111.67578,130.55859 Z"
     style="fill:#e62d2d;stroke-width:1.33333"
     id="path2" />
  <path
     d="m 119.64774,123.89653 c 0,12.29067 -9.964,22.25467 -22.253333,22.25467 -12.290666,0 -22.254666,-9.964 -22.254666,-22.25467 0,-12.29067 9.964,-22.25333 22.254666,-22.25333 12.289333,0 22.253333,9.96266 22.253333,22.25333"
     style="fill:#d5d4d4;fill-opacity:1;fill-rule:nonzero;stroke:none;stroke-width:1.33333"
     id="path120" />
</svg>
