<?xml version="1.0" encoding="UTF-8" standalone="no"?>
<!-- Created with Inkscape (http://www.inkscape.org/) -->

<svg
   version="1.1"
   id="svg2"
   width="194.7095"
   height="247.79253"
   viewBox="0 0 194.70951 247.79253"
   xmlns="http://www.w3.org/2000/svg"
   xmlns:svg="http://www.w3.org/2000/svg">
  <defs
     id="defs6">
    <clipPath
       clipPathUnits="userSpaceOnUse"
       id="clipPath96">
      <path
         d="M 410.129,207.977 H 624.177 V 422.024 H 410.129 Z"
         id="path94" />
    </clipPath>
  </defs>
  <g
     id="g8"
     transform="matrix(1.3333333,0,0,-1.3333333,-592.03971,543.79305)">
    <g
       id="g90">
      <g
         id="g92"
         clip-path="url(#clipPath96)">
        <g
           id="g98"
           transform="translate(517.0752,358.501)">
          <path
             d="m 0,0 c -24.068,0 -43.579,-19.511 -43.579,-43.579 0,-24.067 19.511,-43.578 43.579,-43.578 24.068,0 43.579,19.511 43.579,43.578 C 43.579,-19.511 24.068,0 0,0 m 58.863,-49.872 c -0.325,-3.089 1.209,-6.078 3.896,-7.631 l 6.286,-3.633 c 3.769,-2.177 5.06,-6.997 2.886,-10.767 L 60.44,-91.823 c -2.177,-3.776 -7.004,-5.069 -10.777,-2.888 l -6.265,3.62 c -2.69,1.555 -6.05,1.399 -8.559,-0.432 -3.365,-2.457 -7.001,-4.568 -10.852,-6.28 -2.833,-1.259 -4.645,-4.086 -4.645,-7.188 v -7.252 c 0,-4.356 -3.531,-7.887 -7.886,-7.887 h -22.971 c -4.355,0 -7.885,3.531 -7.885,7.886 v 7.253 c 0,3.102 -1.813,5.929 -4.645,7.188 -3.851,1.712 -7.487,3.823 -10.853,6.28 -2.509,1.831 -5.869,1.987 -8.559,0.432 l -6.277,-3.628 c -3.767,-2.177 -8.584,-0.885 -10.759,2.886 l -11.495,19.928 c -2.175,3.77 -0.885,8.592 2.883,10.768 l 6.287,3.634 c 2.688,1.553 4.222,4.542 3.896,7.631 -0.217,2.059 -0.329,4.148 -0.329,6.264 0,2.116 0.112,4.206 0.329,6.264 0.326,3.089 -1.208,6.078 -3.896,7.631 l -6.285,3.632 c -3.77,2.178 -5.061,6.998 -2.886,10.769 l 11.496,19.929 c 2.175,3.77 6.992,5.062 10.759,2.885 l 6.286,-3.632 c 2.691,-1.555 6.048,-1.389 8.558,0.443 3.364,2.455 6.996,4.563 10.845,6.273 2.832,1.26 4.645,4.086 4.645,7.189 v 7.252 c 0,4.356 3.53,7.887 7.886,7.887 h 22.97 c 4.355,0 7.886,-3.531 7.886,-7.886 v -7.253 c 0,-3.103 1.812,-5.929 4.645,-7.189 3.848,-1.71 7.481,-3.818 10.845,-6.273 2.51,-1.832 5.867,-1.998 8.557,-0.443 l 6.287,3.632 C 53.443,9.679 58.26,8.387 60.435,4.617 L 71.93,-15.312 c 2.175,-3.771 0.884,-8.591 -2.885,-10.769 l -6.286,-3.632 c -2.687,-1.553 -4.221,-4.542 -3.896,-7.631 0.218,-2.058 0.33,-4.148 0.33,-6.264 0,-2.116 -0.112,-4.205 -0.33,-6.264"
             style="fill:#d5d4d4;fill-opacity:1;fill-rule:nonzero;stroke:none"
             id="path100" />
        </g>
        <g
           id="g102"
           transform="translate(564.8286,389.3633)">
          <path
             d="m 0,0 -21.424,9.99 -37.041,-79.436 21.423,-9.991 z"
             style="fill:#3b3735;fill-opacity:1;fill-rule:nonzero;stroke:none"
             id="path104" />
        </g>
        <g
           id="g106"
           transform="translate(543.2061,399.4458)">
          <path
             d="m 0,0 17.2,8.399 4.621,-18.574 z"
             style="fill:#3b3735;fill-opacity:1;fill-rule:nonzero;stroke:none"
             id="path108" />
        </g>
        <g
           id="g110"
           transform="translate(469.3218,240.4814)">
          <path
             d="M 0,0 21.423,-9.99 58.465,69.445 37.042,79.436 Z"
             style="fill:#e62d2d;fill-opacity:1;fill-rule:nonzero;stroke:none"
             id="path112" />
        </g>
        <g
           id="g114"
           transform="translate(490.9443,230.3984)">
          <path
             d="m 0,0 -17.2,-8.398 -4.622,18.574 z"
             style="fill:#e62d2d;fill-opacity:1;fill-rule:nonzero;stroke:none"
             id="path116" />
        </g>
        <g
           id="g118"
           transform="translate(533.7656,314.9224)">
          <path
             d="m 0,0 c 0,-9.218 -7.473,-16.691 -16.69,-16.691 -9.218,0 -16.691,7.473 -16.691,16.691 0,9.218 7.473,16.69 16.691,16.69 C -7.473,16.69 0,9.218 0,0"
             style="fill:#d5d4d4;fill-opacity:1;fill-rule:nonzero;stroke:none"
             id="path120" />
        </g>
      </g>
    </g>
  </g>
</svg>
