<?xml version="1.0" encoding="UTF-8" standalone="no"?>
<!-- Created with Inkscape (http://www.inkscape.org/) -->

<svg
   version="1.1"
   id="svg2"
   width="350"
   height="350"
   viewBox="0 0 350.00001 350.00001"
   xmlns="http://www.w3.org/2000/svg"
   xmlns:svg="http://www.w3.org/2000/svg">
  <defs
     id="defs6" />
  <path
     d="m 175.00032,116.89427 c -32.09067,0 -58.10533,26.01467 -58.10533,58.10533 0,32.08933 26.01466,58.104 58.10533,58.104 32.09067,0 58.10533,-26.01467 58.10533,-58.104 0,-32.09067 -26.01466,-58.10533 -58.10533,-58.10533 m 78.484,66.496 c -0.43333,4.11866 1.612,8.104 5.19467,10.17466 l 8.38133,4.844 c 5.02533,2.90267 6.74667,9.32934 3.848,14.356 l -15.32133,26.56 c -2.90267,5.03467 -9.33867,6.75867 -14.36934,3.85067 l -8.35333,-4.82667 c -3.58667,-2.07333 -8.06666,-1.86533 -11.412,0.576 -4.48666,3.276 -9.33466,6.09067 -14.46933,8.37334 -3.77733,1.67866 -6.19333,5.448 -6.19333,9.584 v 9.66933 c 0,5.808 -4.708,10.516 -10.51467,10.516 h -30.628 c -5.80667,0 -10.51334,-4.708 -10.51334,-10.51467 v -9.67066 c 0,-4.136 -2.41733,-7.90534 -6.19333,-9.584 -5.13467,-2.28267 -9.98267,-5.09734 -14.47067,-8.37334 -3.34533,-2.44133 -7.82533,-2.64933 -11.412,-0.576 l -8.36933,4.83734 c -5.02267,2.90266 -11.445332,1.18 -14.345332,-3.848 L 79.016321,212.7676 c -2.899999,-5.02667 -1.18,-11.456 3.844,-14.35733 l 8.382667,-4.84534 c 3.584,-2.07066 5.629333,-6.056 5.194666,-10.17466 -0.289333,-2.74534 -0.438666,-5.53067 -0.438666,-8.352 0,-2.82134 0.149333,-5.608 0.438666,-8.352 0.434667,-4.11867 -1.610666,-8.104 -5.194666,-10.17467 l -8.38,-4.84267 c -5.026667,-2.904 -6.748,-9.33066 -3.848,-14.35866 l 15.328,-26.572 c 2.9,-5.02667 9.322662,-6.74933 14.345332,-3.84667 l 8.38133,4.84267 c 3.588,2.07333 8.064,1.852 11.41067,-0.59067 4.48533,-3.27333 9.328,-6.084 14.46,-8.364 3.776,-1.68 6.19333,-5.447997 6.19333,-9.58533 v -9.669333 c 0,-5.808 4.70667,-10.516 10.51467,-10.516 h 30.62667 c 5.80667,0 10.51467,4.708 10.51467,10.514666 v 9.670667 c 0,4.137333 2.416,7.90533 6.19333,9.58533 5.13067,2.28 9.97467,5.09067 14.46,8.364 3.34667,2.44267 7.82266,2.664 11.40933,0.59067 l 8.38267,-4.84267 c 5.02266,-2.90266 11.44533,-1.18 14.34533,3.84667 l 15.32667,26.572 c 2.9,5.028 1.17866,11.45466 -3.84667,14.35866 l -8.38133,4.84267 c -3.58267,2.07067 -5.628,6.056 -5.19467,10.17467 0.29067,2.744 0.44,5.53066 0.44,8.352 0,2.82133 -0.14933,5.60666 -0.44,8.352"
     style="fill:#d5d4d4;fill-opacity:1;fill-rule:nonzero;stroke:none;stroke-width:1.33333"
     id="path100" />
  <path
     d="M 232.77442,51.10254 210.10645,62.424806 160.71777,168.33887 189.28223,181.66113 238.6709,75.745118 Z"
     style="fill:#3b3735;stroke-width:1.33333"
     id="path3" />
  <path
     d="m 160.71777,168.33887 -49.38867,105.91406 5.89649,24.64258 22.66796,-11.32227 49.38868,-105.91211 z"
     style="fill:#e62d2d;stroke-width:1.33333"
     id="path2" />
  <path
     d="m 197.25419,174.99907 c 0,12.29067 -9.964,22.25467 -22.25334,22.25467 -12.29066,0 -22.25466,-9.964 -22.25466,-22.25467 0,-12.29067 9.964,-22.25333 22.25466,-22.25333 12.28934,0 22.25334,9.96266 22.25334,22.25333"
     style="fill:#d5d4d4;fill-opacity:1;fill-rule:nonzero;stroke:none;stroke-width:1.33333"
     id="path120" />
</svg>
